<svg width="149" height="149" viewBox="0 0 149 149" fill="none" xmlns="http://www.w3.org/2000/svg">
<path d="M29.3898 72.0691L21.2491 74.6632L28.458 75.066L28.8668 74.1054L29.0845 74.1564L28.933 76.3716L28.7153 76.3206L28.3431 75.3606L21.1342 74.9578L20.9302 75.8287L20.7125 75.7777L20.864 73.5625L27.6222 71.3794L21.1663 68.3511L21.3307 66.2767L21.5484 66.3278L21.639 67.3136L29.0656 67.7674L29.3336 66.8196L29.5513 66.8706L29.4005 69.8668L29.1828 69.8158L29.0922 68.83L21.9473 68.3504L29.3639 71.7874L29.3898 72.0691Z" fill="#DB9F05"/>
<path d="M23.011 55.9682C23.0749 55.8913 23.2158 55.8783 23.4335 55.9294C23.5104 55.9933 23.6512 55.9804 23.7281 56.0443C23.805 56.1082 23.8818 56.1722 23.9717 56.377C24.1513 56.7865 24.2541 57.1321 24.1521 57.5675C24.1521 57.5675 24.165 57.7084 24.0371 57.8621L29.352 59.291C30.082 59.508 30.6842 59.8787 30.9536 60.4931C31.2231 61.1074 31.2878 61.8115 30.9559 62.8361C30.6879 63.7839 30.2532 64.4629 29.7158 64.7963C29.1784 65.1297 28.4742 65.1944 27.8211 65.0414L22.4293 63.5485L22.0845 64.4323L21.8667 64.3813L22.5938 61.4742L22.8115 61.5252L22.6843 62.46L28.0761 63.9528C28.7293 64.1058 29.2926 64.0541 29.7661 63.7976C30.2396 63.541 30.5463 63.0158 30.7633 62.2858C31.1333 60.9026 30.6971 60.0196 29.314 59.6496L24.2168 58.2717L23.5773 59.0405L23.2827 58.9256L23.6017 57.7601L23.8194 57.8111C23.8065 57.6703 23.8704 57.5934 23.8575 57.4526C23.8445 57.3118 23.8316 57.1709 23.7547 57.107L23.6778 57.043C23.6009 56.9791 23.537 57.056 23.3962 57.0689C23.2553 57.0819 23.2553 57.0819 23.1145 57.0948C23.0376 57.0309 22.9607 56.9669 22.8839 56.903C22.8709 56.7621 22.858 56.6213 22.909 56.4036C22.8192 56.1988 22.8831 56.1219 23.011 55.9682ZM21.5692 61.1422C21.5052 61.2191 21.4413 61.296 21.3004 61.309C21.2365 61.3858 21.2365 61.3858 21.0957 61.3988C20.9548 61.4117 20.8779 61.3478 20.7881 61.143C20.7112 61.079 20.6983 60.9382 20.6854 60.7974C20.6724 60.6566 20.7364 60.5797 20.9411 60.4899L22.4126 59.5026L22.5664 59.6305L21.5692 61.1422Z" fill="#DB9F05"/>
<path d="M31.9118 58.5588L31.6941 58.5078L31.7444 57.509L25.4293 54.4678L24.7129 55.1727L24.4952 55.1217L25.3257 53.3412L32.8018 52.0152L27.7549 49.6386L27.0386 50.3435L26.8208 50.2925L27.7024 48.2942L27.9201 48.3452L27.8698 49.344L34.6973 52.5512L34.6463 52.7689L25.9157 54.3521L31.8464 57.0736L32.6267 56.2918L32.8444 56.3428L31.9118 58.5588Z" fill="#DB9F05"/>
<path d="M36.1285 49.5794C35.5141 49.8489 34.81 49.9136 34.1569 49.7606C33.4398 49.6844 32.6968 49.3266 32.0818 48.8151C31.4667 48.3035 30.8516 47.792 30.5053 47.1137C30.1589 46.4354 30.0303 45.8082 30.0425 45.168C30.0547 44.5278 30.3485 43.8617 30.7192 43.2596C31.09 42.6574 31.6274 42.324 32.1778 42.1315L32.1002 41.2865L32.228 41.1327L34.278 42.5776L34.1501 42.7313L32.4084 42.3233C31.8581 42.5159 31.3206 42.8493 30.9499 43.4514C30.6302 43.8358 30.5282 44.2713 30.503 44.7706C30.4779 45.27 30.6446 45.5387 30.9011 46.0122C31.1577 46.4857 31.619 46.8694 32.0803 47.253L33.605 48.3911C34.1302 48.6979 34.6555 49.0047 35.1678 49.1706C35.6801 49.3366 36.1026 49.2978 36.5121 49.1181C36.9217 48.9385 37.2543 48.6949 37.5741 48.3105C37.9577 47.8492 37.9829 47.3498 37.8672 46.8634C37.7515 46.3769 37.431 45.9803 36.9697 45.5967L36.1369 45.0341L35.4206 45.739L35.2668 45.6111L37.0953 43.0998L37.2491 43.2277L36.8274 44.0475L37.6601 44.6101C37.9677 44.8659 38.2752 45.1217 38.378 45.4673C38.5576 45.8768 38.5964 46.2993 38.4944 46.7347C38.3924 47.1701 38.1625 47.7593 37.7918 48.3615C37.3442 48.8997 36.8197 49.3739 36.1285 49.5794Z" fill="#DB9F05"/>
<path d="M42.7789 41.5835C42.1516 41.7121 41.4345 41.636 40.7684 41.3421C40.1024 41.0483 39.5642 40.6007 38.9362 39.9483C38.385 39.3598 37.9618 38.6176 37.7563 37.9264C37.5508 37.2352 37.563 36.595 37.716 35.9419C37.869 35.2888 38.2397 34.6866 38.8411 34.2763C39.0329 34.0457 39.3017 33.879 39.6473 33.7762C39.916 33.6095 40.1976 33.5836 40.5432 33.4809L40.6704 32.5461L40.7983 32.3923L42.4646 34.2985L42.3367 34.4522L40.7739 33.6727C40.4153 33.6346 40.0697 33.7374 39.801 33.9041C39.4554 34.0069 39.1867 34.1736 38.9949 34.4042C38.5983 34.7247 38.4194 35.0962 38.3174 35.5316C38.2153 35.967 38.2542 36.3895 38.3699 36.8759C38.4856 37.3624 38.819 37.8998 39.2803 38.2835L40.5492 39.7291C40.9466 40.1896 41.4079 40.5733 41.9202 40.7392C42.3686 40.9821 42.8679 41.0072 43.2904 40.9684C43.7129 40.9296 44.1224 40.7499 44.4422 40.3655C44.7109 40.1988 44.8898 39.8273 45.0687 39.4559C45.2476 39.0844 45.2856 38.7258 45.3237 38.3673L44.682 36.7931L44.8099 36.6393L46.566 38.7502L46.4381 38.904L45.5292 39.0585C45.4912 39.417 45.3762 39.7116 45.1844 39.9423C44.9925 40.1729 44.8776 40.4675 44.6089 40.6342C44.0844 41.1085 43.4061 41.4548 42.7789 41.5835Z" fill="#DB9F05"/>
<path d="M49.0889 26.0209C49.2298 26.008 49.3067 26.0719 49.3965 26.2767C49.4734 26.3406 49.4863 26.4814 49.4992 26.6223C49.5122 26.7631 49.5251 26.9039 49.4612 26.9808C49.3592 27.4162 49.1034 27.7238 48.7707 27.9674C48.7068 28.0442 48.6299 27.9803 48.502 28.1341L51.5537 32.7533C51.9769 33.4955 52.1056 34.1227 51.9396 34.635C51.7097 35.2242 51.2621 35.7624 50.392 36.3394C49.5219 36.9164 48.7538 37.058 48.1776 36.9689C47.5244 36.8159 47.0631 36.4322 46.6528 35.8309L43.6651 31.1348L42.782 31.5709L42.6922 31.3662L45.2386 29.712L45.3284 29.9168L44.5991 30.4809L47.5869 35.177C47.9203 35.7144 48.3816 36.0981 48.881 36.1232C49.3933 36.2892 49.9436 36.0966 50.609 35.6094C51.8886 34.8528 52.0797 33.8411 51.336 32.7023L48.502 28.1341L47.4781 28.5832L47.3883 28.3784L48.3992 27.7885L48.4891 27.9932C48.553 27.9164 48.7578 27.8265 48.8217 27.7496C48.8857 27.6728 48.9496 27.5959 48.9367 27.455C48.9367 27.455 49.0006 27.3782 48.9237 27.3142C48.8468 27.2503 48.77 27.1863 48.6931 27.1224C48.6162 27.0584 48.5393 26.9945 48.4624 26.9306C48.3855 26.8666 48.3726 26.7258 48.4366 26.6489C48.5005 26.572 48.6284 26.4182 48.7563 26.2645C48.8712 25.9699 49.0121 25.9569 49.0889 26.0209Z" fill="#DB9F05"/>
<path d="M58.4735 25.3718C59.0117 25.8194 59.358 26.4977 59.7044 27.1759C59.9868 27.9311 60.1283 28.6992 60.0522 29.4162C59.9761 30.1333 59.7462 30.7225 59.3754 31.3246C58.9278 31.8628 58.4033 32.3371 57.7121 32.5426C56.957 32.825 56.3297 32.9536 55.6766 32.8006C55.0234 32.6476 54.3574 32.3538 53.8192 31.9061C53.281 31.4585 52.7938 30.7932 52.5114 30.0381C52.229 29.2829 52.0874 28.5148 52.1636 27.7977C52.2397 27.0807 52.4696 26.4915 52.8403 25.8893C53.288 25.3512 53.8124 24.8769 54.5036 24.6714C55.054 24.4788 55.6813 24.3502 56.1807 24.3753C56.3215 24.3624 56.3215 24.3624 56.4623 24.3494C56.6031 24.3365 56.731 24.1827 56.795 24.1058C56.8589 24.0289 56.9868 23.8752 57.0507 23.7983C57.0507 23.7983 57.1147 23.7214 57.0378 23.6575C56.9609 23.5935 56.884 23.5296 56.8072 23.4656C56.7303 23.4017 56.6534 23.3377 56.6405 23.1969C56.6275 23.0561 56.5506 22.9921 56.6785 22.8384C56.7425 22.7615 56.8704 22.6077 57.0751 22.5179C57.2799 22.4281 57.3568 22.492 57.4976 22.4791C57.6384 22.4662 57.7283 22.6709 57.7412 22.8118C57.7541 22.9526 57.831 23.0165 57.844 23.1574C57.8569 23.2982 57.793 23.3751 57.8059 23.5159C57.5631 23.9643 57.3073 24.2718 56.9617 24.3745C57.41 24.6174 58.0122 24.9881 58.4735 25.3718ZM58.1933 26.9597C57.9238 26.3454 57.5904 25.808 57.206 25.4882C56.8216 25.1685 56.3732 24.9257 55.9378 24.8237C55.5024 24.7216 55.0799 24.7605 54.5295 24.953C54.1839 25.0558 53.7873 25.3763 53.4676 25.7607C53.1479 26.1451 53.0459 26.5805 53.0337 27.2207C53.0085 27.7201 53.1372 28.3474 53.4066 28.9617L53.9715 30.472C54.2409 31.0863 54.5743 31.6237 54.9588 31.9435C55.3432 32.2632 55.7915 32.506 56.227 32.608C56.6624 32.71 57.0849 32.6712 57.6352 32.4786C58.0448 32.299 58.4414 31.9785 58.7611 31.5941C59.0808 31.2097 59.1829 30.7743 59.195 30.1341C59.2202 29.6347 59.0915 29.0074 58.8221 28.3931L58.1933 26.9597ZM53.428 24.5572L54.2076 22.9944C54.2715 22.9175 54.3354 22.8406 54.3994 22.7637C54.5402 22.7508 54.681 22.7379 54.7579 22.8018C54.8348 22.8658 54.9117 22.9297 55.0655 23.0576C55.1423 23.1215 55.1553 23.2624 55.0913 23.3392C55.0274 23.4161 55.0403 23.557 54.8995 23.5699L53.441 24.698L53.428 24.5572Z" fill="#DB9F05"/>
<path d="M61.8973 30.9509L61.8075 30.7461L62.6905 30.31L60.8911 23.0904L59.9053 23.181L59.8154 22.9762L62.734 22.282L62.8238 22.4868L62.0047 22.8461L63.8042 30.0656L64.79 29.9751L64.8798 30.1798L61.8973 30.9509Z" fill="#DB9F05"/>
<path d="M67.7344 29.5625L67.7854 29.3448L68.7324 28.8317L68.3032 21.8413L67.2915 21.6502L67.2656 21.3686L69.1733 21.2643L73.9804 27.2134L73.6166 21.7082L72.592 21.3762L72.5661 21.0946L74.7554 20.9645L74.7813 21.2461L73.8343 21.7592L74.3153 29.3129L74.0207 29.1979L68.4189 22.3277L68.8093 28.8956L69.8339 29.2276L69.9237 29.4323L67.7344 29.5625Z" fill="#DB9F05"/>
<path d="M77.6952 29.0024C77.157 28.5547 76.8236 28.0173 76.6181 27.3261C76.4125 26.6349 76.3478 25.9308 76.411 25.0729C76.4742 24.215 76.7681 23.5489 77.1388 22.9467C77.5095 22.3446 78.034 21.8704 78.6484 21.6009C79.2627 21.3314 79.8899 21.2028 80.6839 21.3429C81.401 21.419 81.9902 21.6489 82.3875 22.1095L83.0528 21.6223L83.2706 21.6733L83.0041 24.1831L82.7864 24.1321L82.2726 22.4041C81.8752 21.9435 81.286 21.7136 80.6329 21.5606C80.1335 21.5355 79.711 21.5743 79.3015 21.7539C78.8919 21.9336 78.5722 22.318 78.2525 22.7024C78.0097 23.1508 77.8437 23.6631 77.6907 24.3162L77.4364 26.1858C77.4242 26.826 77.3351 27.4022 77.5917 27.8757C77.7074 28.3622 78.0278 28.7588 78.3354 29.0146C78.6429 29.2703 79.0913 29.5132 79.5906 29.5383C80.1669 29.6274 80.6533 29.5117 80.973 29.1273C81.2928 28.7428 81.5356 28.2945 81.6247 27.7182L81.7518 26.7834L80.8041 26.5155L80.8551 26.2978L83.9411 26.6533L83.8901 26.871L82.9683 26.8847L82.8411 27.8195C82.8031 28.178 82.6242 28.5495 82.3684 28.857C82.1126 29.1646 81.7799 29.4082 81.2935 29.5239C80.8071 29.6396 80.2438 29.6913 79.5267 29.6152C78.8225 29.6799 78.2334 29.45 77.6952 29.0024Z" fill="#DB9F05"/>
<path d="M83.112 29.9958L83.163 29.7781L84.2897 29.6746L89.2895 23.0375L89.5073 23.0885L89.938 31.641L90.7578 32.0627L90.7068 32.2804L87.7867 31.4126L87.8378 31.1948L88.6957 31.258L88.5267 28.6462L85.9012 27.8933L84.5074 29.7256L85.2762 30.3651L85.2252 30.5828L83.112 29.9958ZM86.0291 27.7396L88.5138 28.5054L88.3052 24.6901L86.0291 27.7396Z" fill="#DB9F05"/>
<path d="M91.3731 32.5743L91.4241 32.3566L92.3718 32.6245L93.6751 29.8065L93.1454 24.8136L92.4663 24.3789L92.5173 24.1612L95.3354 25.4644L95.2844 25.6821L94.3367 25.4142L94.8017 29.703L98.0005 27.4208L97.0649 26.5127L97.1159 26.295L99.191 27.2405L99.14 27.4582L98.2311 27.6127L94.7637 30.0615L93.3454 33.1742L94.1782 33.7367L94.1272 33.9544L91.3731 32.5743Z" fill="#DB9F05"/>
<path d="M119.121 74.9023L127.095 72.0394L119.912 71.9183L119.503 72.8789L119.285 72.8279L119.296 70.6257L119.514 70.6767L119.886 71.6366L127.146 71.8217L127.273 70.8869L127.491 70.9379L127.416 73.217L120.747 75.6049L127.254 78.4155L127.231 80.4769L127.013 80.4259L126.923 79.4401L119.522 79.268L119.395 80.2027L119.177 80.1517L119.251 77.0916L119.469 77.1426L119.559 78.1284L126.678 78.3264L119.134 75.0431L119.121 74.9023Z" fill="#DB9F05"/>
<path d="M126.114 90.7338C126.05 90.8106 125.909 90.8236 125.692 90.7726C125.615 90.7086 125.474 90.7216 125.397 90.6576C125.32 90.5937 125.243 90.5297 125.089 90.4018C124.846 90.0692 124.807 89.6467 124.909 89.2113C124.909 89.2113 124.896 89.0704 125.024 88.9167L119.658 87.7055C118.864 87.5654 118.326 87.1178 117.993 86.5803C117.659 86.0429 117.658 85.2619 117.849 84.2502C118.041 83.2385 118.475 82.5595 119.013 82.2261C119.55 81.8927 120.177 81.7641 120.907 81.981L126.35 83.2562L126.695 82.3724L126.913 82.4234L126.263 85.3945L126.045 85.3435L126.095 84.3447L120.652 83.0696C119.999 82.9166 119.436 82.9683 119.039 83.2888C118.566 83.5453 118.259 84.0706 118.119 84.8645C117.826 86.3116 118.326 87.1178 119.632 87.4238L124.857 88.648L125.42 87.8152L125.638 87.8662L125.319 89.0316L125.101 88.9806C125.114 89.1214 125.05 89.1983 125.063 89.3392C125.076 89.48 125.153 89.5439 125.166 89.6848L125.242 89.7487C125.319 89.8126 125.383 89.7358 125.524 89.7228C125.665 89.7099 125.729 89.633 125.806 89.6969C125.947 89.684 125.96 89.8248 126.036 89.8888C126.113 89.9527 126.062 90.1704 126.011 90.3882C126.306 90.5031 126.178 90.6569 126.114 90.7338ZM127.274 85.5856C127.338 85.5087 127.402 85.4318 127.466 85.3549C127.53 85.278 127.671 85.2651 127.748 85.329C127.889 85.3161 127.965 85.38 128.055 85.5848C128.132 85.6488 128.145 85.7896 128.158 85.9304C128.171 86.0712 128.107 86.1481 127.902 86.2379L126.508 87.2892L126.354 87.1613L127.274 85.5856Z" fill="#DB9F05"/>
<path d="M117.175 88.5017L117.392 88.5527L117.419 89.6154L123.849 92.362L124.566 91.6571L124.783 91.7081L124.017 93.4117L116.566 95.0193L121.664 97.1783L122.381 96.4734L122.598 96.5244L121.717 98.5226L121.499 98.4716L121.473 97.4089L114.453 94.4324L114.504 94.2147L123.132 92.2859L117.073 89.7181L116.293 90.4999L116.076 90.4489L117.175 88.5017Z" fill="#DB9F05"/>
<path d="M113.112 97.609C113.726 97.3396 114.431 97.2749 115.148 97.351C115.865 97.4271 116.531 97.721 117.287 98.2196C117.966 98.6543 118.517 99.2427 118.927 99.8441C119.337 100.445 119.466 101.073 119.467 101.854C119.455 102.494 119.238 103.224 118.867 103.826C118.496 104.428 118.036 104.826 117.485 105.018L117.563 105.863L117.435 106.017L115.321 104.649L115.449 104.495L117.255 104.826C117.882 104.698 118.342 104.3 118.713 103.698C118.956 103.25 119.135 102.878 119.096 102.456C119.057 102.033 118.942 101.547 118.685 101.073C118.428 100.6 117.967 100.216 117.442 99.9095L115.853 98.8484C115.328 98.5416 114.803 98.2348 114.303 98.2097C113.804 98.1845 113.305 98.1594 112.895 98.339C112.486 98.5187 112.153 98.7623 111.91 99.2106C111.603 99.7359 111.501 100.171 111.617 100.658C111.733 101.144 112.053 101.541 112.578 101.848L113.334 102.346L113.974 101.577L114.127 101.705L112.44 104.204L112.286 104.076L112.631 103.192L111.875 102.693C111.567 102.437 111.26 102.182 111.157 101.836C111.054 101.491 110.939 101.004 111.041 100.569C111.066 100.069 111.373 99.544 111.743 98.9419C112.037 98.2758 112.498 97.8785 113.112 97.609Z" fill="#DB9F05"/>
<path d="M106.769 105.861C107.396 105.732 108.114 105.808 108.78 106.102C109.446 106.396 110.048 106.767 110.676 107.419C111.227 108.007 111.714 108.673 111.92 109.364C112.125 110.055 112.19 110.759 112.037 111.412C111.884 112.066 111.513 112.668 110.989 113.142C110.797 113.373 110.528 113.539 110.182 113.642C109.914 113.809 109.632 113.835 109.286 113.937L109.223 114.795L109.095 114.949L107.365 113.12L107.493 112.966L109.043 113.605C109.325 113.579 109.67 113.476 110.016 113.373C110.361 113.271 110.63 113.104 110.822 112.873C111.219 112.553 111.397 112.181 111.499 111.746C111.601 111.31 111.563 110.888 111.37 110.338C111.254 109.851 110.857 109.391 110.46 108.93L109.127 107.561C108.729 107.101 108.204 106.794 107.756 106.551C107.307 106.308 106.808 106.283 106.386 106.322C105.963 106.361 105.554 106.54 105.234 106.925C105.042 107.156 104.786 107.463 104.607 107.835C104.428 108.206 104.39 108.565 104.416 108.846L105.135 110.484L105.007 110.638L103.2 108.745L103.328 108.591L104.237 108.437C104.275 108.078 104.39 107.784 104.505 107.489C104.619 107.194 104.811 106.964 105.003 106.733C105.541 106.4 106.142 105.989 106.769 105.861Z" fill="#DB9F05"/>
<path d="M100.972 121.589C100.831 121.602 100.754 121.538 100.664 121.333C100.587 121.269 100.574 121.129 100.561 120.988C100.548 120.847 100.535 120.706 100.599 120.629C100.701 120.194 100.88 119.822 101.29 119.643C101.354 119.566 101.354 119.566 101.558 119.476L98.4428 114.934C97.9556 114.268 97.827 113.641 97.98 112.988C98.133 112.335 98.5806 111.797 99.4507 111.22C100.321 110.643 101.012 110.437 101.665 110.59C102.318 110.743 102.844 111.05 103.254 111.651L106.382 116.334L107.202 115.975L107.291 116.18L104.822 117.898L104.732 117.693L105.384 117.065L102.256 112.382C101.922 111.845 101.397 111.538 100.962 111.436C100.526 111.334 99.8352 111.539 99.2338 111.95C98.031 112.77 97.8399 113.782 98.5836 114.921L101.546 119.335L102.518 119.104L102.608 119.309L101.61 120.039L101.456 119.911C101.393 119.988 101.188 120.078 101.201 120.219C101.137 120.296 101.073 120.373 101.086 120.514C101.086 120.514 101.022 120.59 101.099 120.654C101.176 120.718 101.252 120.782 101.329 120.846C101.406 120.91 101.483 120.974 101.56 121.038C101.637 121.102 101.65 121.243 101.586 121.32C101.522 121.397 101.394 121.55 101.266 121.704C101.253 121.563 101.125 121.717 100.972 121.589Z" fill="#DB9F05"/>
<path d="M91.6899 122.584C91.1517 122.136 90.7414 121.535 90.459 120.78C90.0997 119.961 90.035 119.257 89.9703 118.552C90.0465 117.835 90.1995 117.182 90.6471 116.644C91.0178 116.042 91.6192 115.632 92.2335 115.362C92.9118 115.016 93.6159 114.951 94.2691 115.104C94.9861 115.18 95.5114 115.487 96.1265 115.999C96.6646 116.446 97.1518 117.111 97.4342 117.867C97.7166 118.622 97.8582 119.39 97.9229 120.094C97.8468 120.811 97.6937 121.464 97.2461 122.002C96.8754 122.605 96.274 123.015 95.6597 123.284C95.1093 123.477 94.559 123.669 93.9827 123.58C93.8419 123.593 93.7779 123.67 93.7779 123.67C93.6371 123.683 93.5092 123.837 93.4453 123.914C93.3813 123.991 93.2534 124.144 93.1895 124.221C93.1895 124.221 93.1255 124.298 93.2024 124.362C93.2793 124.426 93.3562 124.49 93.4331 124.554C93.51 124.618 93.5868 124.682 93.6637 124.746C93.6767 124.887 93.7536 124.951 93.6257 125.104C93.4978 125.258 93.4338 125.335 93.2291 125.425C93.0243 125.515 92.8835 125.528 92.8066 125.464C92.7297 125.4 92.5759 125.272 92.499 125.208C92.4222 125.144 92.4092 125.003 92.3963 124.862C92.3833 124.721 92.4473 124.645 92.4343 124.504C92.6132 124.132 92.933 123.748 93.2786 123.645C92.8173 123.261 92.2281 123.032 91.6899 122.584ZM96.7224 123.258L95.9429 124.82C95.8789 124.897 95.815 124.974 95.751 125.051C95.6102 125.064 95.4694 125.077 95.3925 125.013C95.3156 124.949 95.2387 124.885 95.085 124.757C95.0081 124.693 94.9951 124.552 95.0591 124.476C95.123 124.399 95.1101 124.258 95.2509 124.245L96.6326 123.053L96.7224 123.258ZM91.97 120.996C92.2395 121.61 92.5729 122.148 92.9573 122.467C93.3418 122.787 93.7901 123.03 94.2255 123.132C94.661 123.234 95.1474 123.118 95.5569 122.939C95.9665 122.759 96.3631 122.439 96.6059 121.99C96.8488 121.542 96.9508 121.106 96.9759 120.607C97.001 120.108 96.8724 119.48 96.6029 118.866L95.9742 117.433C95.7047 116.818 95.3713 116.281 94.9869 115.961C94.6025 115.641 94.1541 115.399 93.7187 115.297C93.2833 115.195 92.7968 115.31 92.3873 115.49C91.9777 115.67 91.5811 115.99 91.3383 116.438C91.0954 116.887 90.9934 117.322 90.9683 117.822C90.9432 118.321 91.0718 118.948 91.3413 119.563L91.97 120.996Z" fill="#DB9F05"/>
<path d="M88.0612 117.095L88.151 117.299L87.268 117.736L89.3491 124.929L90.3349 124.839L90.4247 125.043L87.5191 125.878L87.4292 125.674L88.3123 125.238L86.2312 118.044L85.2454 118.134L85.1556 117.93L88.0612 117.095Z" fill="#DB9F05"/>
<path d="M82.3137 118.688L82.3396 118.97L81.3926 119.483L82.0266 126.383L83.0512 126.715L83.0771 126.997L81.1824 127.242L76.1835 121.523L76.765 127.08L77.7896 127.412L77.8154 127.693L75.703 127.887L75.6771 127.606L76.6241 127.093L75.8615 119.565L76.1431 119.539L81.7061 125.987L81.0341 119.445L80.0094 119.113L79.9836 118.831L82.3137 118.688Z" fill="#DB9F05"/>
<path d="M72.315 119.606C72.8532 120.054 73.2506 120.515 73.4561 121.206C73.6616 121.897 73.8032 122.665 73.74 123.523C73.6768 124.381 73.4598 125.111 73.0891 125.713C72.7184 126.315 72.1939 126.789 71.6564 127.123C71.0421 127.392 70.3509 127.598 69.6338 127.522C68.9168 127.446 68.3276 127.216 67.8663 126.832L67.2009 127.319L66.9832 127.268L67.1728 124.694L67.3905 124.745L67.9043 126.473C68.3017 126.934 68.8909 127.164 69.608 127.24C70.1073 127.265 70.5298 127.226 70.8625 126.983C71.272 126.803 71.5917 126.419 71.8346 125.97C72.0774 125.522 72.2434 125.01 72.3195 124.293L72.433 122.436C72.4452 121.796 72.3934 121.232 72.2777 120.746C72.162 120.26 71.8415 119.863 71.534 119.607C71.2265 119.351 70.7781 119.109 70.3556 119.147C69.7794 119.058 69.2929 119.174 68.9732 119.558C68.5766 119.879 68.4107 120.391 68.3216 120.967L68.1944 121.902L69.1422 122.17L69.0912 122.388L66.0181 122.173L66.0691 121.956L67.0549 121.865L67.182 120.93C67.2201 120.572 67.399 120.2 67.5779 119.829C67.8337 119.521 68.1663 119.278 68.5759 119.098C68.9854 118.918 69.6256 118.93 70.2658 118.943C71.1877 118.929 71.8537 119.223 72.315 119.606Z" fill="#DB9F05"/>
<path d="M66.9879 118.818L66.9369 119.035L65.8871 119.203L61.1179 126.032L60.9771 126.045L60.2647 117.518L59.3809 117.173L59.4319 116.956L62.339 117.683L62.288 117.9L61.4301 117.837L61.663 120.372L64.3524 121.048L65.6694 119.152L64.9006 118.512L64.9516 118.295L66.9879 118.818ZM64.0837 121.215L61.612 120.59L61.9614 124.392L64.0837 121.215Z" fill="#DB9F05"/>
<path d="M58.612 116.534L58.4841 116.688L57.5364 116.42L56.31 119.302L56.9805 124.282L57.6596 124.716L57.6085 124.934L54.8034 123.772L54.8544 123.554L55.8022 123.822L55.1963 119.546L52.0744 121.892L53.01 122.8L52.959 123.018L50.8199 122.149L50.8709 121.932L51.7798 121.777L55.0935 119.2L56.4349 116.024L55.6021 115.461L55.6531 115.244L58.612 116.534Z" fill="#DB9F05"/>
<path d="M47.2422 116.442C47.0504 116.673 46.7687 116.699 46.615 116.571C35.5072 109.284 27.5449 97.5887 24.7924 84.634C24.7666 84.3523 24.8815 84.0578 25.1632 84.0319C25.4448 84.006 25.7394 84.1209 25.7653 84.4026C28.4279 97.1525 36.1466 108.515 47.1007 115.674C47.3313 115.866 47.3572 116.148 47.2422 116.442C47.2422 116.442 47.3062 116.366 47.2422 116.442Z" fill="#DB9F05"/>
<path d="M123.554 64.4118C123.49 64.4887 123.426 64.5656 123.285 64.5785C123.003 64.6044 122.709 64.4895 122.683 64.2078C120.02 51.4579 112.225 40.0317 101.348 32.936C101.117 32.7442 101.091 32.4626 101.142 32.2448C101.334 32.0142 101.615 31.9883 101.833 32.0393C112.941 39.3268 120.903 51.0217 123.656 63.9764C123.746 64.1812 123.682 64.2581 123.554 64.4118Z" fill="#DB9F05"/>
</svg>
